<?xml version="1.0" encoding="utf-8"?>
<!-- Generator: Adobe Illustrator 19.0.0, SVG Export Plug-In . SVG Version: 6.00 Build 0)  -->
<svg version="1.1" id="图层_1" xmlns="http://www.w3.org/2000/svg" xmlns:xlink="http://www.w3.org/1999/xlink" x="0px" y="0px"
	 viewBox="0 0 18 18" style="enable-background:new 0 0 18 18;" xml:space="preserve">
<style type="text/css">
	.st0{fill:rgba(255, 255, 255, 0.75);}
</style>
<g id="XMLID_27_">
	<g id="XMLID_37_">
		<path id="XMLID_38_" class="st0" d="M11.8,7.1c-0.3-0.3-0.6-0.5-0.8-0.8l-0.6-0.6c-0.2-0.1-0.3-0.2-0.3-0.2
			c-0.3-0.3-0.6-0.4-1-0.4s-0.7,0.1-1,0.4c0,0-0.1,0.1-0.3,0.3C7.6,6,7.4,6.1,7.2,6.4C7,6.6,6.7,6.9,6.4,7.1
			C6.1,7.4,5.8,7.6,5.5,7.9C4.8,8.5,4,9.3,3.1,10.1v6.2c0,0.3,0.1,0.5,0.3,0.6c0.2,0.1,0.4,0.2,0.7,0.2h3.1V17v-2.7
			c0-0.9,0.7-1.6,1.6-1.6h0.6c0.9,0,1.6,0.7,1.6,1.6V17v0.1h3.1c0.3,0,0.5-0.1,0.7-0.3c0.2-0.2,0.3-0.4,0.3-0.6v-6.1
			c-0.9-0.8-1.7-1.6-2.4-2.2C12.4,7.6,12.1,7.3,11.8,7.1z M16.7,7.8l-0.4-0.4c-0.2-0.2-0.5-0.4-0.7-0.7c-0.3-0.3-0.6-0.6-1-1
			S13.9,5,13.5,4.6s-0.7-0.7-1.1-1.1s-0.7-0.7-1-1S10.9,2,10.7,1.8s-0.3-0.3-0.4-0.4C10,1.1,9.6,0.9,9.1,0.9S8.2,1.1,7.8,1.5
			C7.7,1.6,7.6,1.7,7.2,2C6.9,2.3,6.5,2.7,6,3.1C5.5,3.5,5.1,4,4.5,4.5C4,5,3.5,5.4,3,5.9C2.5,6.3,2.2,6.7,1.8,7
			C1.5,7.3,1.3,7.5,1.2,7.6C1,7.8,0.9,8,0.9,8.2c0,0.3,0.1,0.5,0.3,0.7c0.2,0.2,0.4,0.3,0.7,0.2c0.3,0,0.5-0.1,0.6-0.2
			c0.1,0,0.2-0.2,0.5-0.4C3.3,8.3,3.6,8,3.9,7.6c0.4-0.3,0.8-0.7,1.2-1.1c0.4-0.4,0.8-0.8,1.2-1.1c0.4-0.4,0.7-0.7,1-1
			s0.5-0.5,0.6-0.6c0.3-0.3,0.6-0.4,1-0.4c0.3,0,0.7,0.1,1,0.4C10,3.9,10.1,4,10.4,4.3s0.6,0.6,1,0.9c0.4,0.4,0.8,0.7,1.2,1.2
			c0.4,0.4,0.8,0.8,1.2,1.2c0.4,0.4,0.7,0.7,1,0.9c0.3,0.3,0.4,0.4,0.5,0.4c0.2,0.1,0.4,0.2,0.6,0.2c0.3,0,0.5-0.1,0.7-0.3
			c0.2-0.2,0.3-0.4,0.3-0.6C17.1,8.2,17,8,16.7,7.8z"/>
	</g>
</g>
</svg>
